<mxfile host="app.diagrams.net" modified="2024-04-25T23:02:50.623Z" agent="Mozilla/5.0 (Windows NT 10.0; Win64; x64) AppleWebKit/537.36 (KHTML, like Gecko) Chrome/124.0.0.0 Safari/537.36" version="24.2.0" etag="ctresyDvrfUzG9esFTmL" type="github">
  <diagram name="PÃ¡gina-1" id="Ed6gw6YrkZPLkwz-RmcQ">
    <mxGraphModel>
      <root>
        <mxCell id="0" />
        <mxCell id="1" parent="0" />
      </root>
    </mxGraphModel>
  </diagram>
</mxfile>
